# xmcd
#
# Track frame offsets: 
#        183
#        11545
#        23970
#        35698
#        47995
#        60613
#        74300
#        87510
#        100900
#        110795
#        123048
#        135673
#        151560
#        163893
#        187253
#        198560
#        215643
#        229128
#
# Disc length: 3218 seconds
#
# Revision: 10
# Processed by: cddbd v1.5.2PL0 Copyright (c) Steve Scherf et al.
# Submitted via: ExactAudioCopyFreeDBPlugin 1.0
#
DISCID=060c9012
DTITLE=John Lee Hooker - The_Blues_Collection-John_Lee_Hooker-Boogie_M
DTITLE=an
DYEAR=1993
DGENRE=Blues
TTITLE0=Boom Boom
TTITLE1=Crawlin' Kingsnake
TTITLE2=Boogie Chillun
TTITLE3=I'm In The Mood
TTITLE4=Leave My Wife Alone
TTITLE5=Time Is Marching
TTITLE6=One Bourbon, One Scotch, One Beer
TTITLE7=Ground Hog Blues
TTITLE8=Dimples
TTITLE9=Walkin' The Boogie
TTITLE10=Hobo Blues
TTITLE11=It Serves Me Right To Suffer
TTITLE12=High Priced Woman
TTITLE13=The Waterfront
TTITLE14=This Is Hip
TTITLE15=Goin' Mad Blues
TTITLE16=Wandering Blues
TTITLE17=House Rent Boogie
EXTD=
EXTT0=
EXTT1=
EXTT2=
EXTT3=
EXTT4=
EXTT5=
EXTT6=
EXTT7=
EXTT8=
EXTT9=
EXTT10=
EXTT11=
EXTT12=
EXTT13=
EXTT14=
EXTT15=
EXTT16=
EXTT17=
PLAYORDER=
